<?xml version="1.0" encoding="UTF-8" standalone="no"?>
<!-- Created with Inkscape (http://www.inkscape.org/) -->

<svg
   xmlns:dc="http://purl.org/dc/elements/1.1/"
   xmlns:cc="http://creativecommons.org/ns#"
   xmlns:rdf="http://www.w3.org/1999/02/22-rdf-syntax-ns#"
   xmlns:svg="http://www.w3.org/2000/svg"
   xmlns="http://www.w3.org/2000/svg"
   xmlns:sodipodi="http://sodipodi.sourceforge.net/DTD/sodipodi-0.dtd"
   xmlns:inkscape="http://www.inkscape.org/namespaces/inkscape"
   width="32"
   height="32"
   id="svg2"
   version="1.1"
   inkscape:version="0.48.5 r10040"
   sodipodi:docname="man2.svg"
   inkscape:export-filename="/home/pw/lab/isodventures/sprites/man2.png"
   inkscape:export-xdpi="90"
   inkscape:export-ydpi="90">
  <defs
     id="defs4">
    <inkscape:perspective
       sodipodi:type="inkscape:persp3d"
       inkscape:vp_x="-3.2666666 : 25.333333 : 1"
       inkscape:vp_y="0 : 1000 : 0"
       inkscape:vp_z="32.533334 : 25.466666 : 1"
       inkscape:persp3d-origin="15.466667 : 18.2 : 1"
       id="perspective2985" />
  </defs>
  <sodipodi:namedview
     id="base"
     pagecolor="#ffffff"
     bordercolor="#666666"
     borderopacity="1.0"
     inkscape:pageopacity="0.0"
     inkscape:pageshadow="2"
     inkscape:zoom="18.517359"
     inkscape:cx="12.579787"
     inkscape:cy="17.385091"
     inkscape:document-units="px"
     inkscape:current-layer="layer1"
     showgrid="false"
     inkscape:window-width="1920"
     inkscape:window-height="1015"
     inkscape:window-x="-2"
     inkscape:window-y="-3"
     inkscape:window-maximized="1" />
  <metadata
     id="metadata7">
    <rdf:RDF>
      <cc:Work
         rdf:about="">
        <dc:format>image/svg+xml</dc:format>
        <dc:type
           rdf:resource="http://purl.org/dc/dcmitype/StillImage" />
        <dc:title></dc:title>
      </cc:Work>
    </rdf:RDF>
  </metadata>
  <g
     inkscape:label="Layer 1"
     inkscape:groupmode="layer"
     id="layer1"
     transform="translate(0,-1020.3622)">
    <path
       transform="matrix(1.6261404,0,0,1.2590926,-11.74498,1021.6401)"
       d="m 19.551313,6.9689736 c 0,1.3813709 -1.119823,2.5011933 -2.501194,2.5011933 -1.381371,0 -2.501193,-1.1198224 -2.501193,-2.5011933 0,-1.3813709 1.119822,-2.5011932 2.501193,-2.5011932 1.381371,0 2.501194,1.1198223 2.501194,2.5011932 z"
       sodipodi:ry="2.5011933"
       sodipodi:rx="2.5011933"
       sodipodi:cy="6.9689736"
       sodipodi:cx="17.050119"
       id="path3830"
       style="fill:#87cdde;stroke:#000000;stroke-width:0.34943157;stroke-linejoin:bevel;stroke-miterlimit:4;stroke-opacity:1;stroke-dasharray:none"
       sodipodi:type="arc" />
    <path
       sodipodi:type="arc"
       style="fill:#87cdde;stroke:#000000;stroke-width:0.39711139000000001;stroke-linejoin:bevel;stroke-miterlimit:4;stroke-opacity:1;stroke-dasharray:none"
       id="path3047"
       sodipodi:cx="17.050119"
       sodipodi:cy="6.9689736"
       sodipodi:rx="2.5011933"
       sodipodi:ry="2.5011933"
       d="m 19.551313,6.9689736 c 0,1.3813709 -1.119823,2.5011933 -2.501194,2.5011933 -1.381371,0 -2.501193,-1.1198224 -2.501193,-2.5011933 0,-1.3813709 1.119822,-2.5011932 2.501193,-2.5011932 1.381371,0 2.501194,1.1198223 2.501194,2.5011932 z"
       transform="matrix(1.2590926,0,0,1.2590926,-5.4867716,1017.6401)" />
    <path
       style="fill:none;stroke:#000000;stroke-width:1px;stroke-linecap:round;stroke-linejoin:miter;stroke-opacity:1"
       d="m 16,1021.6933 0,2.3294"
       id="path3820"
       inkscape:connector-curvature="0" />
    <g
       id="g3851"
       transform="matrix(-0.92717925,0.22246565,0.18730609,0.78064331,-160.70722,221.75165)">
      <path
         sodipodi:type="arc"
         style="fill:#f2f2f2;stroke:#000000;stroke-width:0.6484977;stroke-linejoin:bevel;stroke-miterlimit:4;stroke-opacity:1;stroke-dasharray:none"
         id="path3822"
         sodipodi:cx="17.050119"
         sodipodi:cy="6.9689736"
         sodipodi:rx="2.5011933"
         sodipodi:ry="2.5011933"
         d="m 19.551313,6.9689736 c 0,1.3813709 -1.119823,2.5011933 -2.501194,2.5011933 -1.381371,0 -2.501193,-1.1198224 -2.501193,-2.5011933 0,-1.3813709 1.119822,-2.5011932 2.501193,-2.5011932 1.381371,0 2.501194,1.1198223 2.501194,2.5011932 z"
         transform="matrix(0.88124928,0,0,0.88124928,0.95550217,1021.2183)" />
      <path
         transform="matrix(0.10397159,0,0,0.10397159,13.152533,1026.2983)"
         d="m 19.551313,6.9689736 c 0,1.3813709 -1.119823,2.5011933 -2.501194,2.5011933 -1.381371,0 -2.501193,-1.1198224 -2.501193,-2.5011933 0,-1.3813709 1.119822,-2.5011932 2.501193,-2.5011932 1.381371,0 2.501194,1.1198223 2.501194,2.5011932 z"
         sodipodi:ry="2.5011933"
         sodipodi:rx="2.5011933"
         sodipodi:cy="6.9689736"
         sodipodi:cx="17.050119"
         id="path3824"
         style="fill:#1a1a1a;stroke:#000000;stroke-width:5.49658012;stroke-linejoin:bevel;stroke-miterlimit:4;stroke-opacity:1;stroke-dasharray:none"
         sodipodi:type="arc" />
      <path
         sodipodi:type="arc"
         style="fill:#1a1a1a;stroke:#000000;stroke-width:5.49658012;stroke-linejoin:bevel;stroke-miterlimit:4;stroke-opacity:1;stroke-dasharray:none"
         id="path3826"
         sodipodi:cx="17.050119"
         sodipodi:cy="6.9689736"
         sodipodi:rx="2.5011933"
         sodipodi:ry="2.5011933"
         d="m 19.551313,6.9689736 c 0,1.3813709 -1.119823,2.5011933 -2.501194,2.5011933 -1.381371,0 -2.501193,-1.1198224 -2.501193,-2.5011933 0,-1.3813709 1.119822,-2.5011932 2.501193,-2.5011932 1.381371,0 2.501194,1.1198223 2.501194,2.5011932 z"
         transform="matrix(0.10397159,0,0,0.10397159,14.934645,1026.2983)" />
    </g>
    <path
       transform="matrix(0.30908653,0,0,0.30908653,10.710945,1019.3464)"
       d="m 19.551313,6.9689736 c 0,1.3813709 -1.119823,2.5011933 -2.501194,2.5011933 -1.381371,0 -2.501193,-1.1198224 -2.501193,-2.5011933 0,-1.3813709 1.119822,-2.5011932 2.501193,-2.5011932 1.381371,0 2.501194,1.1198223 2.501194,2.5011932 z"
       sodipodi:ry="2.5011933"
       sodipodi:rx="2.5011933"
       sodipodi:cy="6.9689736"
       sodipodi:cx="17.050119"
       id="path3828"
       style="fill:#87cdde;stroke:#000000;stroke-width:1.61766994;stroke-linejoin:bevel;stroke-miterlimit:4;stroke-opacity:1;stroke-dasharray:none"
       sodipodi:type="arc" />
  </g>
</svg>
