<?xml version="1.0" encoding="UTF-8" standalone="no"?>
<!-- Created with Inkscape (http://www.inkscape.org/) -->

<svg
   xmlns:dc="http://purl.org/dc/elements/1.1/"
   xmlns:cc="http://creativecommons.org/ns#"
   xmlns:rdf="http://www.w3.org/1999/02/22-rdf-syntax-ns#"
   xmlns:svg="http://www.w3.org/2000/svg"
   xmlns="http://www.w3.org/2000/svg"
   xmlns:sodipodi="http://sodipodi.sourceforge.net/DTD/sodipodi-0.dtd"
   xmlns:inkscape="http://www.inkscape.org/namespaces/inkscape"
   width="32"
   height="32"
   id="svg2"
   version="1.1"
   inkscape:version="0.48.5 r10040"
   sodipodi:docname="rocket2.svg"
   inkscape:export-filename="/home/pw/lab/isodventures/sprites/rocket2.png"
   inkscape:export-xdpi="180"
   inkscape:export-ydpi="180">
  <defs
     id="defs4">
    <inkscape:perspective
       sodipodi:type="inkscape:persp3d"
       inkscape:vp_x="-3.2666666 : 25.333333 : 1"
       inkscape:vp_y="0 : 1000 : 0"
       inkscape:vp_z="32.533334 : 25.466666 : 1"
       inkscape:persp3d-origin="15.466667 : 18.2 : 1"
       id="perspective2985" />
  </defs>
  <sodipodi:namedview
     id="base"
     pagecolor="#ffffff"
     bordercolor="#666666"
     borderopacity="1.0"
     inkscape:pageopacity="0.0"
     inkscape:pageshadow="2"
     inkscape:zoom="26.1875"
     inkscape:cx="15.331742"
     inkscape:cy="19.054893"
     inkscape:document-units="px"
     inkscape:current-layer="layer1"
     showgrid="false"
     inkscape:window-width="1920"
     inkscape:window-height="1015"
     inkscape:window-x="-2"
     inkscape:window-y="-3"
     inkscape:window-maximized="1" />
  <metadata
     id="metadata7">
    <rdf:RDF>
      <cc:Work
         rdf:about="">
        <dc:format>image/svg+xml</dc:format>
        <dc:type
           rdf:resource="http://purl.org/dc/dcmitype/StillImage" />
        <dc:title></dc:title>
      </cc:Work>
    </rdf:RDF>
  </metadata>
  <g
     inkscape:label="Layer 1"
     inkscape:groupmode="layer"
     id="layer1"
     transform="translate(0,-1020.3622)">
    <path
       style="fill:#ff6600;stroke:#ffd42a;stroke-width:0.29999999999999999;stroke-linecap:butt;stroke-linejoin:miter;stroke-opacity:1;stroke-miterlimit:4;stroke-dasharray:none"
       d="m 13.059666,13.365155 c -0.04175,0.09581 -0.03819,0.171554 -0.03819,0.267303 0,0.01273 0.0057,0.0268 0,0.03819 -0.0081,0.0161 -0.03014,0.02209 -0.03819,0.03819 -0.0057,0.01138 0,0.02546 0,0.03819 0,0.02546 0.008,0.05222 0,0.07637 -0.0057,0.01708 -0.0282,0.02321 -0.03819,0.03819 -0.08413,0.01923 -0.02018,0.07856 -0.03819,0.114559 -0.0081,0.0161 -0.03014,0.02209 -0.03819,0.03819 -0.01138,0.02277 0.0081,0.05222 0,0.07637 -0.009,0.027 -0.02919,0.04937 -0.03819,0.07637 -0.005,0.01486 0.0059,0.108633 0,0.114559 -0.009,0.009 -0.02919,-0.009 -0.03819,0 -0.018,0.018 0.01139,0.0536 0,0.07637 -0.0081,0.0161 -0.03014,0.02209 -0.03819,0.03819 -0.0057,0.01138 0.004,0.02611 0,0.03819 -0.009,0.027 -0.02919,0.04937 -0.03819,0.07637 -0.0088,0.02627 0.01127,0.09203 0,0.114558 -0.008,0.0161 -0.03013,0.02209 -0.03819,0.03819 -0.012,0.024 0.012,0.128744 0,0.152745 -0.0081,0.0161 -0.03014,0.02209 -0.03819,0.03819 -0.0057,0.01139 0.0057,0.0268 0,0.03819 -0.0081,0.0161 -0.03014,0.02209 -0.03819,0.03819 -0.01527,0.03055 0.01527,0.08401 0,0.114558 -0.0081,0.0161 -0.03014,0.02209 -0.03819,0.03819 -0.0039,0.0078 -0.0054,0.109173 0,0.114559 0.009,0.009 0.02919,0.009 0.03819,0 0.009,-0.009 -0.01139,-0.03249 0,-0.03819 0.02277,-0.01139 0.05222,0.008 0.07637,0 0.01708,-0.0057 0.02111,-0.03249 0.03819,-0.03819 0.02415,-0.008 0.05222,0.0081 0.07637,0 0.01708,-0.0057 0.02209,-0.03013 0.03819,-0.03819 0.01139,-0.0057 0.0268,0.0057 0.03819,0 0.0161,-0.0081 0.02209,-0.03014 0.03819,-0.03819 0.01138,-0.0057 0.0268,0.0057 0.03819,0 0.0161,-0.0081 0.02209,-0.03014 0.03819,-0.03819 0.01138,-0.0057 0.02919,0.009 0.03819,0 0.009,-0.009 -0.009,-0.02919 0,-0.03819 0.009,-0.009 0.0268,0.0057 0.03819,0 0.0161,-0.0081 0.02209,-0.03014 0.03819,-0.03819 0.280666,-0.09356 0.01945,0.01249 0.152745,-0.07637 0.04736,-0.03158 0.101829,-0.05091 0.152744,-0.07637 0.05092,-0.02546 0.09874,-0.05837 0.152745,-0.07637 0.01207,-0.004 0.02919,0.009 0.03819,0 0,-0.10183 -0.01273,0.01273 0.03819,-0.03819 0.009,-0.009 -0.01273,-0.03819 0,-0.03819 0.01273,0 0,0.02546 0,0.03819 0,0.07637 0,0.152745 0,0.229117 0,0.01273 0,0.02546 0,0.03819 0,0.01273 0.0057,0.0268 0,0.03819 -0.008,0.0161 -0.03014,0.02209 -0.03819,0.03819 -0.0043,0.0086 0,0.14367 0,0.152745 0,0.07637 0,0.152744 0,0.229116 0,0.01273 0,0.02546 0,0.03819 0,0.01273 0.0057,0.0268 0,0.03819 -0.0081,0.0161 -0.03014,0.02209 -0.03819,0.03819 -0.0057,0.01139 0,0.02546 0,0.03819 0,0.02546 0,0.05091 0,0.07637 0,0.05091 0,0.10183 0,0.152745 0,0.01402 -0.0015,0.151208 0,0.152745 0.009,0.009 0.02919,-0.009 0.03819,0 0.0134,0.0134 -0.01319,0.164554 0,0.19093 0.005,0.0099 0.05004,0.06452 0.07637,0.03819 0.02013,-0.02013 0.01806,-0.05625 0.03819,-0.07637 0.009,-0.009 0.02919,0.009 0.03819,0 0.0024,-0.0024 0.07163,-0.145631 0.07637,-0.152744 0.09467,-0.142012 -0.0183,0.06564 0.07637,-0.07637 0.01579,-0.02368 0.0224,-0.05269 0.03819,-0.07637 0.01673,-0.02509 0.10767,-0.09389 0.114559,-0.114558 0.0081,-0.02415 -0.01138,-0.0536 0,-0.07637 0.0057,-0.01139 0.02546,0 0.03819,0 0.01273,-0.02546 0.02919,-0.04937 0.03819,-0.07637 0.004,-0.01208 -0.009,-0.02919 0,-0.03819 0.07901,-0.07901 -0.0031,0.120735 0.07637,-0.03819 0.0057,-0.01139 0,-0.02546 0,-0.03819 0.01273,-0.01273 0.03013,-0.02208 0.03819,-0.03819 0.01139,-0.02277 -0.018,-0.05837 0,-0.07637 0.009,-0.009 0.02919,0.009 0.03819,0 0.009,-0.009 -0.009,-0.02919 0,-0.03819 0.009,-0.009 0.02919,0.009 0.03819,0 0.009,-0.009 -0.0071,-0.02759 0,-0.03819 0.02996,-0.04493 0.07637,-0.07637 0.114559,-0.114559 0.08755,-0.08755 -0.0161,0.02415 0.07637,-0.114558 0.01,-0.01498 0.02546,-0.02546 0.03819,-0.03819 0.01273,-0.01273 0.02018,-0.03819 0.03819,-0.03819 0.06332,0 0.02678,0.05355 0.03819,0.07637 0.0081,0.0161 0.03014,0.02209 0.03819,0.03819 0.0057,0.01138 -0.004,0.02611 0,0.03819 0.009,0.027 0.02919,0.04937 0.03819,0.07637 0.004,0.01208 0,0.02546 0,0.03819 0,0.02546 -0.0081,0.05222 0,0.07637 0.0057,0.01708 0.03014,0.02209 0.03819,0.03819 0.01126,0.02253 -0.0088,0.08829 0,0.114558 0.009,0.027 0.02919,0.04937 0.03819,0.07637 0.0113,0.03389 -0.0125,0.165926 0,0.190931 0.008,0.0161 0.03014,0.02208 0.03819,0.03819 0.01528,0.03055 -0.01527,0.08401 0,0.114558 0.0081,0.0161 0.03014,0.02209 0.03819,0.03819 0.01139,0.02277 -0.01138,0.0536 0,0.07637 0.0081,0.0161 0.03014,0.02208 0.03819,0.03819 0.0057,0.01138 -0.004,0.02611 0,0.03819 0.009,0.027 0.02919,0.04937 0.03819,0.07637 0.01352,0.04058 -0.01353,0.112168 0,0.152745 0.0057,0.01708 0.03013,0.02209 0.03819,0.03819 0.0057,0.01139 -0.004,0.02611 0,0.03819 0.009,0.027 0.02919,0.04937 0.03819,0.07637 0.01146,0.03437 -0.01146,0.08019 0,0.114558 0.0057,0.01708 0.0282,0.02321 0.03819,0.03819 0.01579,0.02368 0.02919,0.04937 0.03819,0.07637 0.0081,0.02415 -0.01139,0.0536 0,0.07637 0.0081,0.0161 0.03014,0.02209 0.03819,0.03819 0.0057,0.01139 -0.009,0.02919 0,0.03819 0.009,0.009 0.02546,0 0.03819,0 0.01273,0 0.02919,0.009 0.03819,0 0.009,-0.009 -0.0057,-0.0268 0,-0.03819 0.0081,-0.0161 0.03014,-0.02209 0.03819,-0.03819 0.0057,-0.01139 -0.004,-0.02611 0,-0.03819 0.009,-0.027 0.02919,-0.04937 0.03819,-0.07637 0.004,-0.01207 -0.004,-0.02611 0,-0.03819 0.009,-0.027 0.02919,-0.04937 0.03819,-0.07637 0.004,-0.01208 -0.004,-0.02611 0,-0.03819 0.0922,-0.276599 -0.01101,0.0602 0.07637,-0.114559 0.0057,-0.01139 -0.0057,-0.0268 0,-0.03819 0.0081,-0.0161 0.03014,-0.02208 0.03819,-0.03819 0.0057,-0.01138 -0.0057,-0.0268 0,-0.03819 0.008,-0.0161 0.03013,-0.02209 0.03819,-0.03819 0.01139,-0.02277 -0.01139,-0.0536 0,-0.07637 0.0081,-0.0161 0.03014,-0.02209 0.03819,-0.03819 0.0057,-0.01139 -0.009,-0.02918 0,-0.03819 0.009,-0.009 0.03249,0.01139 0.03819,0 0.01138,-0.02277 -0.0081,-0.05222 0,-0.07637 0.0057,-0.01708 0.03014,-0.02209 0.03819,-0.03819 0.0057,-0.01138 -0.0057,-0.0268 0,-0.03819 0.0068,-0.01352 0.06961,-0.06285 0.07637,-0.07637 0.0057,-0.01138 -0.0057,-0.0268 0,-0.03819 0.008,-0.0161 0.03013,-0.02209 0.03819,-0.03819 0.005,-0.01003 -0.01609,-0.09446 0.03819,-0.07637 0.130376,0.04346 0.05091,0.07637 0.07637,0.152745 0.01139,0.03416 0.06499,0.04222 0.07637,0.07637 0.0081,0.02415 -0.01138,0.0536 0,0.07637 0.0161,0.0322 0.0564,0.04642 0.07637,0.07637 0.0071,0.01059 -0.0057,0.0268 0,0.03819 0.008,0.0161 0.03014,0.02209 0.03819,0.03819 0.0057,0.01139 -0.0057,0.0268 0,0.03819 0.0081,0.0161 0.03249,0.02111 0.03819,0.03819 0.0081,0.02415 -0.01139,0.0536 0,0.07637 0.0057,0.01139 0.03249,-0.01138 0.03819,0 0.01139,0.02277 -0.0081,0.05222 0,0.07637 0.0057,0.01708 0.03014,0.02209 0.03819,0.03819 0.0057,0.01139 -0.004,0.02611 0,0.03819 0.009,0.027 0.02919,0.04937 0.03819,0.07637 0.004,0.01207 -0.004,0.02611 0,0.03819 0.009,0.027 0.02919,0.04937 0.03819,0.07637 0.004,0.01208 -0.0057,0.0268 0,0.03819 0.0081,0.0161 0.03014,0.02209 0.03819,0.03819 0.0057,0.01139 0,0.02546 0,0.03819 0,0.02546 -0.008,0.05222 0,0.07637 0.01139,0.03416 0.06027,0.04417 0.07637,0.07637 0.01527,0.03055 -0.01527,0.08401 0,0.114559 0.08692,0.08692 0.01009,-0.0079 0.03819,0.07637 -0.02302,0.06912 0.06186,0.07102 0.07637,0.114559 0.008,0.02415 0,0.05091 0,0.07637 0,0.08267 -0.01139,0.07839 0.03819,0.152745 0.07213,0.108193 0.02024,-0.07179 0.07637,0.152744 0.0031,0.01235 -0.009,0.02919 0,0.03819 0.009,0.009 0.02919,-0.009 0.03819,0 0.009,0.009 0,0.05091 0,0.03819 0,-0.365453 -0.01708,0.08539 0.03819,-0.190931 0.01872,-0.06179 -0.01248,-0.128523 0,-0.190931 0.0079,-0.03947 0.03029,-0.07509 0.03819,-0.114558 0.005,-0.02496 0,-0.05091 0,-0.07637 0,-0.05091 -0.0084,-0.102522 0,-0.152744 0.0047,-0.02807 0.02918,-0.04937 0.03819,-0.07637 0.01067,-0.032 -0.01265,-0.127437 0,-0.152744 0.0081,-0.0161 0.03014,-0.02209 0.03819,-0.03819 0.01159,-0.02319 -0.01159,-0.20593 0,-0.229117 0.0081,-0.0161 0.03014,-0.02209 0.03819,-0.03819 0.01139,-0.02277 -0.01138,-0.0536 0,-0.07637 0.0081,-0.0161 0.03014,-0.02208 0.03819,-0.03819 0.0125,-0.02501 -0.0113,-0.157043 0,-0.190931 0.009,-0.027 0.03128,-0.04876 0.03819,-0.07637 0.013,-0.05202 -0.0154,-0.18292 0,-0.229117 0.0057,-0.01708 0.03014,-0.02209 0.03819,-0.03819 0.01139,-0.02277 -0.018,-0.05837 0,-0.07637 0.009,-0.009 0.02611,-0.004 0.03819,0 0.118801,0.0396 0.04667,0.02404 0.114558,0.114559 0.0216,0.0288 0.05477,0.04757 0.07637,0.07637 0.03838,0.05117 0.05437,0.135922 0.07637,0.190931 0.01057,0.02643 0.02546,0.05091 0.03819,0.07637 0.01273,0.02546 0.0224,0.05269 0.03819,0.07637 0.01,0.01498 0.03014,0.02209 0.03819,0.03819 0.01139,0.02277 -0.01139,0.0536 0,0.07637 0.0081,0.0161 0.03014,0.02209 0.03819,0.03819 0.01141,0.02282 -0.02514,0.07637 0.03819,0.07637 0.01273,0 0,-0.02546 0,-0.03819 0,-0.02546 -0.0081,-0.05222 0,-0.07637 0.0057,-0.01708 0.03014,-0.02208 0.03819,-0.03819 0.0057,-0.01138 -0.004,-0.02611 0,-0.03819 0.009,-0.027 0.02762,-0.04995 0.03819,-0.07637 0.01495,-0.03737 0.02019,-0.07856 0.03819,-0.114558 0.008,-0.0161 0.02546,-0.02546 0.03819,-0.03819 0,-0.02546 -0.0081,-0.05222 0,-0.07637 0.0057,-0.01708 0.03249,-0.02111 0.03819,-0.03819 0.0081,-0.02415 -0.0081,-0.05222 0,-0.07637 0.0057,-0.01708 0.03014,-0.02208 0.03819,-0.03819 0.0057,-0.01139 -0.0057,-0.0268 0,-0.03819 0.008,-0.0161 0.03013,-0.02209 0.03819,-0.03819 0.01139,-0.02277 -0.01139,-0.0536 0,-0.07637 0.008,-0.0161 0.03014,-0.02209 0.03819,-0.03819 0.0057,-0.01139 0,-0.02546 0,-0.03819 0.01273,-0.01273 0.03014,-0.02209 0.03819,-0.03819 0.01139,-0.02277 -0.01139,-0.0536 0,-0.07637 0.0161,-0.0322 0.06027,-0.04417 0.07637,-0.07637 0.01527,-0.03055 -0.01527,-0.08401 0,-0.114558 0.0161,-0.0322 0.0564,-0.04642 0.07637,-0.07637 0.0071,-0.01059 -0.004,-0.02611 0,-0.03819 0.009,-0.027 0.02919,-0.04937 0.03819,-0.07637 0.004,-0.01208 -0.0057,-0.0268 0,-0.03819 0.0081,-0.0161 0.03014,-0.02209 0.03819,-0.03819 0.01139,-0.02277 -0.01139,-0.0536 0,-0.07637 0.0081,-0.0161 0.03014,-0.02208 0.03819,-0.03819 0.01139,-0.02277 -0.018,-0.05837 0,-0.07637 0.009,-0.009 0.02546,0 0.03819,0 0.07419,0 0.02919,-0.009 0.114559,0.07637 0.05091,0.05091 0.10183,0.10183 0.152744,0.152745 0.02546,0.02546 0.0564,0.04642 0.07637,0.07637 0.01579,0.02368 0.0224,0.05269 0.03819,0.07637 0.02937,0.04406 0.08518,0.0705 0.114558,0.114559 0.01579,0.02368 0.01806,0.05625 0.03819,0.07637 0.07901,0.07901 -0.0031,-0.120735 0.07637,0.03819 0.0057,0.01139 -0.0057,0.0268 0,0.03819 0.0081,0.0161 0.02546,0.02546 0.03819,0.03819 0.01273,0.01273 0.02018,0.03819 0.03819,0.03819 0.01273,0 -0.0057,-0.0268 0,-0.03819 0.0081,-0.0161 0.03249,-0.02111 0.03819,-0.03819 0.0081,-0.02415 0,-0.05091 0,-0.07637 0,-0.02546 0,-0.05091 0,-0.07637 0,-0.292761 0,-0.585521 0,-0.878282 0,-0.0093 -0.0012,-0.11333 0,-0.114558 0.009,-0.009 0.02546,0 0.03819,0 0.01273,0 0.02546,0 0.03819,0 0.08256,0 0.142128,0.04949 0.19093,0.114558 0.01708,0.02277 0.01806,0.05625 0.03819,0.07637 0.02013,0.02013 0.0536,0.02111 0.07637,0.03819 0.001,7.86e-4 0.143542,0.134339 0.152745,0.152744 0.0057,0.01138 -0.009,0.02919 0,0.03819 0.009,0.009 0.0268,-0.0057 0.03819,0 0.0161,0.0081 0.02208,0.03014 0.03819,0.03819 0.01138,0.0057 0.02546,0 0.03819,0 0.01273,0 0.02919,0.009 0.03819,0 0.0038,-0.0038 0.0038,-0.11074 0,-0.114559 -0.009,-0.009 -0.02919,0.009 -0.03819,0 -0.009,-0.009 0.0057,-0.0268 0,-0.03819 -0.0161,-0.0322 -0.0564,-0.04642 -0.07637,-0.07637 -0.09247,-0.13871 0.01118,-0.027 -0.07637,-0.114559 -0.04369,-0.04369 -0.05325,-0.0452 -0.07637,-0.114558 -0.004,-0.01208 0.0057,-0.0268 0,-0.03819 -0.02291,-0.04582 -0.09165,-0.06874 -0.114558,-0.114559 -0.0057,-0.01139 0.0057,-0.0268 0,-0.03819 -0.0081,-0.0161 -0.03014,-0.02208 -0.03819,-0.03819 -0.0057,-0.01138 0.009,-0.02919 0,-0.03819 -0.009,-0.009 -0.02918,0.009 -0.03819,0 -0.07901,-0.07901 0.120736,0.0031 -0.03819,-0.07637 -0.01139,-0.0057 -0.02918,0.009 -0.03819,0 -0.009,-0.009 0.0057,-0.0268 0,-0.03819 -0.0161,-0.0322 -0.06027,-0.04417 -0.07637,-0.07637 -0.0057,-0.01138 0.009,-0.02919 0,-0.03819 -0.009,-0.009 -0.02919,0.009 -0.03819,0 -0.018,-0.018 0.018,-0.05837 0,-0.07637 -0.009,-0.009 -0.02919,0.009 -0.03819,0 -0.009,-0.009 0.009,-0.02919 0,-0.03819 -0.009,-0.009 -0.02919,0.009 -0.03819,0 -0.009,-0.009 0.0057,-0.0268 0,-0.03819 -0.0081,-0.0161 -0.03014,-0.02209 -0.03819,-0.03819 -0.0057,-0.01139 0.009,-0.02919 0,-0.03819 -0.009,-0.009 -0.02919,0.009 -0.03819,0 -0.009,-0.009 0.009,-0.02919 0,-0.03819 -0.009,-0.009 -0.02919,0.009 -0.03819,0 -0.01909,-0.01909 0.01909,-0.09547 0,-0.114559 -0.009,-0.009 -0.02919,0.009 -0.03819,0 -0.018,-0.018 0.01138,-0.0536 0,-0.07637 -0.0081,-0.0161 -0.03014,-0.02209 -0.03819,-0.03819 -0.0057,-0.01139 0.0057,-0.0268 0,-0.03819 -0.008,-0.0161 -0.03013,-0.02209 -0.03819,-0.03819 -0.04443,-0.08886 0.110739,0.01718 -0.07637,-0.07637"
       id="path3054"
       inkscape:connector-curvature="0"
       transform="translate(0,1020.3622)" />
    <g
       id="g3889"
       transform="matrix(1,0,0,0.86084974,0,143.9072)">
      <path
         transform="matrix(0.60000001,0,0,0.75555556,3.5436751,1022.4141)"
         d="m 25.661098,13.861575 c 0,0.949034 -2.308031,1.718377 -5.155132,1.718377 -2.8471,0 -5.155131,-0.769343 -5.155131,-1.718377 0,-0.949033 2.308031,-1.718377 5.155131,-1.718377 2.847101,0 5.155132,0.769344 5.155132,1.718377 z"
         sodipodi:ry="1.7183771"
         sodipodi:rx="5.1551313"
         sodipodi:cy="13.861575"
         sodipodi:cx="20.505966"
         id="path3823"
         style="fill:#2c89a0;stroke:#000000;stroke-width:0.80038226000000001;stroke-miterlimit:4;stroke-opacity:1;stroke-dasharray:none"
         sodipodi:type="arc" />
      <path
         inkscape:connector-curvature="0"
         id="path3053"
         d="m 14.600245,1021.5078 -1.841691,4.1241 -0.844107,2.7494 -0.07674,2.8258 0.920845,1.451 1.381268,-0.1527 4.143802,0.076 0.767371,-1.222 c 0,0 0.690634,-1.9093 0.690634,-2.2148 0,-0.3055 0.23021,-1.3747 0.07674,-1.6802 -0.153474,-0.3055 -0.997582,-1.8329 -0.997582,-1.8329 l -0.53716,-1.4511 -0.997582,-1.7565 -1.611479,-2.5203 z"
         style="fill:#55ddff;stroke:none" />
      <path
         sodipodi:nodetypes="cc"
         inkscape:connector-curvature="0"
         id="path3045"
         d="m 15.198089,1021.2787 c 0,0 -5.9570395,6.2625 -2.062053,11.6086"
         style="fill:none;stroke:#000000;stroke-width:0.64667726;stroke-linecap:butt;stroke-linejoin:miter;stroke-miterlimit:4;stroke-opacity:1;stroke-dasharray:none" />
      <path
         sodipodi:nodetypes="cc"
         inkscape:connector-curvature="0"
         id="path3049"
         d="m 16.397146,1021.2787 c 0,0 5.95704,6.2625 2.062053,11.6086"
         style="fill:none;stroke:#000000;stroke-width:0.64667726;stroke-linecap:butt;stroke-linejoin:miter;stroke-miterlimit:4;stroke-opacity:1;stroke-dasharray:none" />
      <path
         inkscape:transform-center-y="-0.75145274"
         transform="translate(7.9427208,1019.904)"
         d="m 10.393085,3.7177025 -2.6031088,0 -2.6031088,0 1.3015544,-2.2543582 1.3015543,-2.25435826 1.3015543,2.25435816 z"
         inkscape:randomized="0"
         inkscape:rounded="0"
         inkscape:flatsided="false"
         sodipodi:arg2="1.5707963"
         sodipodi:arg1="0.52359878"
         sodipodi:r2="1.5029055"
         sodipodi:r1="3.005811"
         sodipodi:cy="2.214797"
         sodipodi:cx="7.7899761"
         sodipodi:sides="3"
         id="path3051"
         style="fill:#ff2a2a;stroke:#000000;stroke-width:0.64667726;stroke-linecap:round;stroke-linejoin:bevel;stroke-miterlimit:4;stroke-opacity:1;stroke-dasharray:none"
         sodipodi:type="star" />
      <path
         inkscape:connector-curvature="0"
         id="path3825"
         d="m 10.73031,1033.1165 3.093079,-1.9857 -1.718377,-1.3747 z"
         style="fill:#cccccc;stroke:#000000;stroke-width:0.64667726;stroke-linecap:butt;stroke-linejoin:miter;stroke-miterlimit:4;stroke-opacity:1;stroke-dasharray:none" />
      <path
         style="fill:#cccccc;stroke:#000000;stroke-width:0.64667726;stroke-linecap:butt;stroke-linejoin:miter;stroke-miterlimit:4;stroke-opacity:1;stroke-dasharray:none"
         d="m 21.078759,1032.8872 -3.093079,-1.9857 1.718377,-1.3747 z"
         id="path3827"
         inkscape:connector-curvature="0" />
      <path
         transform="matrix(1,0,0,0.55465195,0.30548926,1022.0596)"
         d="m 17.68019,7.0267553 c 0,1.1602072 -0.581282,2.1007409 -1.298329,2.1007409 -0.717048,0 -1.29833,-0.9405337 -1.29833,-2.1007409 0,-1.1602071 0.581282,-2.1007409 1.29833,-2.1007409 0.717047,0 1.298329,0.9405338 1.298329,2.1007409 z"
         sodipodi:ry="2.1007409"
         sodipodi:rx="1.2983294"
         sodipodi:cy="7.0267553"
         sodipodi:cx="16.381861"
         id="path3829"
         style="fill:#cccccc;stroke:#000000;stroke-width:0.86831504;stroke-linecap:round;stroke-linejoin:bevel;stroke-miterlimit:4;stroke-opacity:1;stroke-dasharray:none"
         sodipodi:type="arc" />
    </g>
  </g>
</svg>
